<svg xmlns="http://www.w3.org/2000/svg" xmlns:xlink="http://www.w3.org/1999/xlink" viewBox="0 0 111 37" fill="#fff" fill-rule="evenodd" stroke="#000" stroke-linecap="round" stroke-linejoin="round"><use xlink:href="#A" x=".5" y=".5"/><symbol id="A" overflow="visible"><g stroke="none" fill-rule="nonzero"><path d="M40.226 13.8l3.1 8.308H41.43l-.64-1.853h-3.1l-.64 1.853H35.2l3.12-8.308zm.128 5.08L39.3 15.864h-.032L38.182 18.9zm9.522 3.228l-1.406-5.656h-.032l-1.374 5.656H45.2L43.005 13.8h1.82l1.3 5.656h.032l1.438-5.656h1.735l1.406 5.72h.032l1.374-5.72h1.8l-2.237 8.308zm6.294-2.054c.096.192.224.35.415.48.16.128.35.224.575.256s.447.096.703.096c.16 0 .35 0 .5-.032s.35-.064.5-.16c.16-.064.288-.192.415-.32.096-.128.16-.32.16-.5 0-.224-.064-.415-.224-.543a1.59 1.59 0 0 0-.575-.35c-.224-.096-.5-.16-.8-.256l-.895-.224c-.308-.062-.61-.16-.895-.288s-.543-.256-.8-.447c-.224-.192-.415-.415-.575-.67a2.23 2.23 0 0 1-.224-.959c0-.415.096-.8.288-1.118s.415-.575.703-.8.64-.35 1-.48.735-.16 1.118-.16c.447 0 .863.064 1.246.16s.767.256 1.054.48c.32.224.543.48.735.83s.288.735.288 1.214h-1.757c0-.256-.064-.447-.16-.607s-.192-.288-.35-.383a1.41 1.41 0 0 0-.511-.192c-.192-.032-.383-.064-.607-.064-.16 0-.288 0-.447.032a1.6 1.6 0 0 0-.415.16c-.127.064-.224.16-.288.288s-.128.256-.128.447c0 .16.032.288.096.383s.192.192.35.288c.192.096.447.16.767.256l1.246.32.64.16c.288.096.543.224.83.383.256.192.5.415.703.703s.288.67.288 1.15c0 .383-.064.735-.224 1.054s-.35.607-.67.83-.64.415-1.086.543c-.415.128-.927.192-1.502.192-.447 0-.895-.064-1.342-.16-.415-.128-.8-.288-1.15-.543-.32-.256-.607-.543-.8-.927s-.288-.8-.288-1.342h1.757l.32.83zM67.386 13.8v6.764h4.026v1.534h-5.88V13.8zm5.112 3.164c.16-.256.383-.447.64-.607s.575-.256.895-.32a5.2 5.2 0 0 1 .991-.096c.288 0 .607.032.927.064a2.47 2.47 0 0 1 .863.256c.256.128.48.288.64.5s.256.5.256.863v3.13l.032.767c.032.256.096.447.16.543H76.21c-.032-.096-.064-.192-.064-.288s-.032-.192-.032-.288a2.52 2.52 0 0 1-.927.575 4.24 4.24 0 0 1-1.086.16 3.22 3.22 0 0 1-.799-.096c-.256-.064-.48-.192-.64-.32a1.85 1.85 0 0 1-.447-.543c-.096-.224-.16-.48-.16-.8 0-.35.064-.607.192-.83s.288-.383.48-.543c.192-.128.415-.224.64-.288s.48-.128.735-.16l.735-.096.64-.096c.192-.032.32-.128.447-.192a.53.53 0 0 0 .16-.383c0-.192-.032-.32-.096-.415s-.128-.192-.224-.256-.224-.096-.35-.128-.256-.032-.415-.032c-.32 0-.575.064-.767.224-.192.128-.288.383-.32.703h-1.66c0-.447.096-.767.256-1.022zm3.26 2.333c-.096.032-.224.064-.35.096s-.256.032-.383.064a1.59 1.59 0 0 0-.383.064l-.35.096a1 1 0 0 0-.32.16c-.096.064-.16.16-.224.256s-.096.224-.096.383a.76.76 0 0 0 .096.383c.064.096.128.192.224.224s.192.096.32.128.256.032.383.032c.32 0 .575-.064.767-.16s.32-.224.383-.383c.096-.16.128-.32.16-.447s.032-.288.032-.383v-.607c-.064 0-.16.064-.256.096zm4.792-3.228v.8h.032a2.5 2.5 0 0 1 .799-.735 2.33 2.33 0 0 1 1.054-.256c.384 0 .735.064 1.054.224s.543.415.703.767c.192-.256.415-.5.735-.703a2.03 2.03 0 0 1 1.086-.288c.32 0 .607.032.895.128.256.064.5.192.703.383a1.47 1.47 0 0 1 .447.67 3.03 3.03 0 0 1 .16.99v4.026h-1.662v-3.41c0-.192 0-.383-.032-.575 0-.192-.064-.32-.128-.48-.064-.128-.16-.224-.32-.32-.128-.064-.32-.128-.543-.128s-.415.032-.575.128c-.128.096-.256.192-.35.35s-.128.32-.16.48-.032.35-.032.543v3.355h-1.662v-3.93a1.28 1.28 0 0 0-.096-.479.78.78 0 0 0-.288-.351c-.128-.096-.32-.128-.607-.128-.064 0-.192.032-.32.064a1.08 1.08 0 0 0-.383.192c-.128.096-.224.224-.32.415s-.128.415-.128.703v3.483H78.95v-6.002h1.598zm10.6-2.26v3.036h.032a1.57 1.57 0 0 1 .831-.671c.35-.128.703-.224 1.086-.224.288 0 .607.064.895.192s.575.32.8.575.415.575.575 1c.16.383.224.863.224 1.438 0 .543-.064 1.022-.224 1.438a3.38 3.38 0 0 1-.575 1 2.32 2.32 0 0 1-.8.575 2.26 2.26 0 0 1-.895.192c-.447 0-.83-.064-1.182-.224-.35-.128-.607-.383-.8-.703h-.032v.767H89.53v-8.336h1.63zm2.652 4.57c-.064-.224-.128-.447-.256-.607-.128-.192-.256-.32-.447-.415-.16-.096-.383-.16-.64-.16a1.35 1.35 0 0 0-.639.16c-.192.096-.32.256-.447.415-.128.192-.192.383-.256.607s-.096.48-.096.735a2.9 2.9 0 0 0 .096.735c.064.224.128.447.256.607.128.192.256.32.447.415a1.35 1.35 0 0 0 1.278 0 1.82 1.82 0 0 0 .447-.415c.128-.192.192-.383.256-.607s.096-.48.096-.735c.002-.248-.03-.495-.096-.735zm7.06 2.97c-.192.32-.447.575-.767.703s-.67.224-1.054.224a2.79 2.79 0 0 1-1.182-.256c-.352-.16-.607-.415-.83-.703s-.383-.64-.5-1.022-.16-.8-.16-1.214.064-.8.16-1.182c.128-.383.288-.703.5-1s.5-.5.83-.703c.32-.16.735-.256 1.15-.256a2.27 2.27 0 0 1 1.022.224c.32.16.575.383.767.67h.032v-3.036h1.662v8.308h-1.566zm-.064-2.972c-.032-.224-.128-.415-.224-.607-.128-.16-.256-.32-.447-.415a1.49 1.49 0 0 0-.67-.16c-.288 0-.5.064-.67.16-.192.096-.32.256-.447.415-.128.192-.192.383-.256.607s-.064.48-.064.703a2.66 2.66 0 0 0 .096.703c.064.224.128.447.256.607a1.49 1.49 0 0 0 .447.447c.2.127.415.16.67.16s.5-.064.67-.16c.192-.096.32-.256.447-.447.096-.192.192-.383.224-.607a5.26 5.26 0 0 0 .064-.735l-.096-.67zm3.132-1.413c.16-.256.383-.447.64-.607s.575-.256.895-.32a5.2 5.2 0 0 1 .991-.096c.288 0 .607.032.927.064a2.47 2.47 0 0 1 .863.256c.256.128.48.288.64.5s.256.5.256.863v3.13l.032.767c.032.256.096.447.16.543h-1.662c-.032-.096-.064-.192-.064-.288s-.032-.192-.032-.288a2.52 2.52 0 0 1-.927.575 4.24 4.24 0 0 1-1.086.16 3.22 3.22 0 0 1-.799-.096c-.256-.064-.48-.192-.64-.32a1.85 1.85 0 0 1-.447-.543c-.096-.224-.16-.48-.16-.8 0-.35.064-.607.192-.83s.288-.383.48-.543c.192-.128.415-.224.64-.288s.48-.128.735-.16l.735-.096.64-.096c.192-.032.32-.128.447-.192a.53.53 0 0 0 .16-.383c0-.192-.032-.32-.096-.415s-.128-.192-.224-.256-.224-.096-.35-.128-.246-.013-.416-.013c-.32 0-.575.064-.767.224-.192.128-.288.383-.32.703h-1.662c-.064-.447.032-.767.224-1.022zm3.26 2.333c-.096.032-.224.064-.35.096s-.256.032-.383.064a1.59 1.59 0 0 0-.383.064l-.35.096a1 1 0 0 0-.32.16c-.096.064-.16.16-.224.256s-.096.224-.096.383a.76.76 0 0 0 .096.383c.064.096.128.192.224.224s.192.096.32.128.256.032.383.032c.32 0 .575-.064.767-.16s.32-.224.383-.383c.096-.16.128-.32.16-.447s.032-.288.032-.383v-.607c-.064 0-.16.064-.256.096z" fill="#f58536"/><path d="M1.896 6.464L0 7.412V28.48l1.896.93L5.23 17.964z" fill="#9d5125"/><path d="M1.896 6.492V29.42l3.666-.858V7.36z" fill="#f58534"/><path d="M6.957 31.958l-2.8-1.395V5.347l2.8-1.395 3.47 14.02z" fill="#9d5125"/><path d="M6.957 31.904V3.952l5.687 1.824v24.322z" fill="#f58534"/><path d="M27.863 8.87v17.437l-2.3-.125V8.87z" fill="#9d5125"/><path d="M27.935 11.106l-2.307.322L16.74 9.12l2.557-1.323 8.388 1.073z" fill="#6b3b19"/><path d="M19.37 28.114l8.638-3.3-2.307-.322-8.888 2.307z" fill="#fcbf92"/><g fill="#9d5125"><path d="M22.033 23.696V12.214l-4.578.608v10.265z"/><path d="M14.88 0l-4.453 2.218v31.476l4.453 2.218 3.8-17.973z"/></g><path d="M27.863 24.84l-8.53 2.557V8.512l8.53 2.557zM14.88 0v35.93l14.88-7.44V7.44zm7.153 23.732l4.74-5.76-4.74-5.76z" fill="#f58534"/></g></symbol></svg>