<?xml version="1.0" standalone="no"?>
<svg xmlns="http://www.w3.org/2000/svg" viewBox="0 0 1440 320">
    <defs>
        <linearGradient id="grad1" x1="0%" y1="0%" x2="100%" y2="0%">
            <stop offset="0%" style="stop-color:#f91b96;stop-opacity:1" />
            <stop offset="33%" style="stop-color:#f91b96;stop-opacity:1" />
            <stop offset="66%" style="stop-color:#f91b96;stop-opacity:1" />
            <stop offset="100%" style="stop-color:#ff7476;stop-opacity:1" />
        </linearGradient>
    </defs>
    <path fill="url(#grad1)" fill-opacity="1"
          d="M0,0L60,16C120,32,240,64,360,85.3C480,107,600,117,720,117.3C840,117,960,107,1080,101.3C1200,96,1320,96,1380,96L1440,96L1440,320L1380,320C1320,320,1200,320,1080,320C960,320,840,320,720,320C600,320,480,320,360,320C240,320,120,320,60,320L0,320Z"></path>
</svg>